<?xml version="1.0" encoding="UTF-8" standalone="no"?>
<svg
   xmlns:dc="http://purl.org/dc/elements/1.1/"
   xmlns:cc="http://creativecommons.org/ns#"
   xmlns:rdf="http://www.w3.org/1999/02/22-rdf-syntax-ns#"
   xmlns:svg="http://www.w3.org/2000/svg"
   xmlns="http://www.w3.org/2000/svg"
   viewBox="0 0 3352 2388"
   height="2388"
   width="3352"
   xml:space="preserve"
   id="svg2"
   version="1.1"><metadata
     id="metadata8"><rdf:RDF><cc:Work
         rdf:about=""><dc:format>image/svg+xml</dc:format><dc:type
           rdf:resource="http://purl.org/dc/dcmitype/StillImage" /></cc:Work></rdf:RDF></metadata><defs
     id="defs6" /><g
     transform="matrix(1.3333333,0,0,-1.3333333,0,2388)"
     id="g10"><g
       transform="scale(0.1)"
       id="g12"><path
         id="path14"
         style="fill:#cb2022;fill-opacity:1;fill-rule:nonzero;stroke:none"
         d="M 7526,4932 3040.52,3771.7 3744.26,5947.4 3013.68,7850.3 7499.1,9010.57 7526,4932" /><path
         id="path16"
         style="fill:#941014;fill-opacity:1;fill-rule:nonzero;stroke:none"
         d="M 7526,4932 4827.13,6104.3 4800.17,10183 7499.1,9010.57 7526,4932" /><g
         transform="scale(1.35722)"
         id="g18"><path
           id="path20"
           style="fill:#cb2022;fill-opacity:1;fill-rule:nonzero;stroke:none"
           d="m 12874.5,5529.76 3425.5,886.1 -557.1,1324.78 537.2,1680.3 -3425.4,-886.09 19.8,-3005.09" /></g><g
         transform="scale(1.23606)"
         id="g22"><path
           id="path24"
           style="fill:#941014;fill-opacity:1;fill-rule:nonzero;stroke:none"
           d="m 14136.5,6071.79 2163.5,2072.9 -21.8,3299.71 -2163.5,-2072.96 21.8,-3299.65" /></g><g
         transform="scale(1.23606)"
         id="g26"><path
           id="path28"
           style="fill:#ee2629;fill-opacity:1;fill-rule:nonzero;stroke:none"
           d="M 16300,8144.69 3905.25,4938.51 3883.44,8238.24 16278.2,11444.4 16300,8144.69" /></g></g></g></svg>